<svg aria-hidden="true" style="position: absolute; width: 0; height: 0; overflow: hidden;" version="1.1"
    xmlns="http://www.w3.org/2000/svg" xmlns:xlink="http://www.w3.org/1999/xlink">
    <defs>
        <symbol id="icon-anchor" viewBox="0 0 33 32">
            <path fill="none" stroke="#fff" style="stroke: var(--color1, #fff)" stroke-linejoin="round"
                stroke-linecap="round" stroke-miterlimit="4" stroke-width="1.8"
                d="M16.5 10c2.568 0 4.65-2.015 4.65-4.5s-2.082-4.5-4.65-4.5c-2.568 0-4.65 2.015-4.65 4.5s2.082 4.5 4.65 4.5zM16.5 10v21M16.5 31c-4.111 0-8.053-1.58-10.96-4.393s-4.54-6.628-4.54-10.607h4.65M16.5 31c4.111 0 8.053-1.58 10.96-4.393s4.54-6.628 4.54-10.607h-4.65">
            </path>
        </symbol>
        <symbol id="icon-arrow-left" viewBox="0 0 58 32">
            <path fill="none" stroke="#fff" style="stroke: var(--color1, #fff)" stroke-linejoin="round"
                stroke-linecap="round" stroke-miterlimit="4" stroke-width="3.7818"
                d="M55.273 16h-52.364M2.909 16l13.091-13.091M2.909 16l13.091 13.091"></path>
        </symbol>
        <symbol id="icon-arrow-right" viewBox="0 0 58 32">
            <path fill="none" stroke="#fff" style="stroke: var(--color1, #fff)" stroke-linejoin="round"
                stroke-linecap="round" stroke-miterlimit="4" stroke-width="3.7818"
                d="M2.909 16h52.364M55.273 16l-13.091-13.091M55.273 16l-13.091 13.091"></path>
        </symbol>
        <symbol id="icon-arrow-right-big" viewBox="0 0 32 32">
            <path
                d="M29.177 16l-10.036 8.313 0.859 1.020 12-10.028-12-9.972-0.86 1.019 10.039 8.315h-29.179v1.333h29.177z">
            </path>
        </symbol>
        <symbol id="icon-arrow-right-dark" viewBox="0 0 32 32">
            <path
                d="M19.414 27.414l10-10c0.781-0.781 0.781-2.047 0-2.828l-10-10c-0.781-0.781-2.047-0.781-2.828 0s-0.781 2.047 0 2.828l6.586 6.586h-19.172c-1.105 0-2 0.895-2 2s0.895 2 2 2h19.172l-6.586 6.586c-0.39 0.39-0.586 0.902-0.586 1.414s0.195 1.024 0.586 1.414c0.781 0.781 2.047 0.781 2.828 0z">
            </path>
        </symbol>
        <symbol id="icon-book" viewBox="0 0 35 32">
            <path fill="none" stroke="#fff" style="stroke: var(--color1, #fff)" stroke-linejoin="round"
                stroke-linecap="round" stroke-miterlimit="4" stroke-width="1.8581"
                d="M17.548 7.685c0-1.764-0.696-3.456-1.935-4.704s-2.919-1.948-4.671-1.948h-9.91v24.946h11.561c1.314 0 2.574 0.526 3.504 1.461s1.451 2.205 1.451 3.528M17.548 7.685v23.283M17.548 7.685c0-1.764 0.696-3.456 1.935-4.704s2.919-1.948 4.671-1.948h9.91v24.946h-11.561c-1.314 0-2.574 0.526-3.504 1.461s-1.451 2.205-1.451 3.528">
            </path>
        </symbol>
        <symbol id="icon-cup" viewBox="0 0 32 32">
            <path fill="none" stroke="#fff" style="stroke: var(--color1, #fff)" stroke-linejoin="round"
                stroke-linecap="round" stroke-miterlimit="4" stroke-width="1.7455"
                d="M23.873 11.491h1.431c1.519 0 2.975 0.633 4.049 1.761s1.677 2.657 1.677 4.251-0.603 3.124-1.677 4.251c-1.074 1.127-2.53 1.761-4.049 1.761h-1.431M23.873 11.491h-22.903v13.527c0 1.594 0.603 3.124 1.677 4.251s2.53 1.761 4.049 1.761h11.452c1.519 0 2.975-0.633 4.049-1.761s1.677-2.657 1.677-4.251v-13.527zM6.696 0.97v4.509M12.421 0.97v4.509M18.147 0.97v4.509">
            </path>
        </symbol>
        <symbol id="icon-facebook" viewBox="0 0 15 32">
            <path fill="#fff" style="fill: var(--color1, #fff)"
                d="M12.207 5.313h2.726v-5.088c-0.47-0.069-2.087-0.225-3.971-0.225-3.931 0-6.624 2.65-6.624 7.519v4.481h-4.339v5.688h4.339v14.313h5.317v-14.313h4.163l0.662-5.688h-4.825v-3.919c0-1.644 0.413-2.769 2.551-2.769z">
            </path>
        </symbol>
        <symbol id="icon-instagram" viewBox="0 0 32 32">
            <path fill="#fff" style="fill: var(--color1, #fff)"
                d="M15.997 7.733c-4.542 0-8.206 3.634-8.206 8.139s3.664 8.139 8.206 8.139c4.543 0 8.207-3.634 8.207-8.139s-3.664-8.139-8.207-8.139zM15.997 21.163c-2.935 0-5.335-2.373-5.335-5.291s2.393-5.291 5.335-5.291c2.943 0 5.335 2.373 5.335 5.291s-2.4 5.291-5.335 5.291zM26.453 7.4c0 1.055-0.857 1.898-1.914 1.898-1.064 0-1.914-0.85-1.914-1.898s0.857-1.898 1.914-1.898c1.057 0 1.914 0.85 1.914 1.898zM31.888 9.327c-0.121-2.543-0.707-4.795-2.585-6.651-1.871-1.856-4.143-2.437-6.707-2.564-2.643-0.149-10.563-0.149-13.206 0-2.557 0.12-4.828 0.701-6.707 2.557s-2.457 4.108-2.586 6.651c-0.15 2.621-0.15 10.476 0 13.097 0.121 2.543 0.707 4.795 2.586 6.651s4.143 2.437 6.707 2.564c2.643 0.149 10.563 0.149 13.206 0 2.564-0.121 4.835-0.701 6.707-2.564 1.871-1.856 2.457-4.108 2.585-6.651 0.15-2.621 0.15-10.469 0-13.090zM28.474 25.229c-0.557 1.388-1.635 2.458-3.043 3.018-2.107 0.829-7.107 0.637-9.435 0.637s-7.335 0.184-9.435-0.637c-1.4-0.553-2.478-1.622-3.043-3.018-0.836-2.090-0.643-7.048-0.643-9.357s-0.186-7.275 0.643-9.357c0.557-1.388 1.636-2.458 3.043-3.018 2.107-0.829 7.107-0.637 9.435-0.637s7.335-0.184 9.435 0.637c1.4 0.553 2.478 1.622 3.043 3.018 0.836 2.090 0.643 7.048 0.643 9.357s0.193 7.275-0.643 9.357z">
            </path>
        </symbol>
        <symbol id="icon-settings" viewBox="0 0 33 32">
            <path fill="none" stroke="#fff" style="stroke: var(--color1, #fff)" stroke-linejoin="round"
                stroke-linecap="round" stroke-miterlimit="4" stroke-width="1.8"
                d="M16.5 20.091c2.335 0 4.227-1.832 4.227-4.091s-1.893-4.091-4.227-4.091c-2.335 0-4.227 1.832-4.227 4.091s1.893 4.091 4.227 4.091z">
            </path>
            <path fill="none" stroke="#fff" style="stroke: var(--color1, #fff)" stroke-linejoin="round"
                stroke-linecap="round" stroke-miterlimit="4" stroke-width="1.8"
                d="M26.927 20.091c-0.188 0.411-0.244 0.867-0.161 1.31s0.301 0.851 0.626 1.172l0.084 0.082c0.262 0.253 0.47 0.554 0.612 0.885s0.215 0.686 0.215 1.044-0.073 0.713-0.215 1.044c-0.142 0.331-0.35 0.632-0.612 0.885s-0.573 0.455-0.915 0.592c-0.342 0.137-0.709 0.208-1.079 0.208s-0.737-0.071-1.079-0.208c-0.342-0.137-0.653-0.338-0.915-0.592l-0.085-0.082c-0.332-0.314-0.754-0.525-1.211-0.605s-0.929-0.026-1.354 0.155c-0.417 0.173-0.772 0.46-1.023 0.826s-0.385 0.795-0.387 1.233v0.232c0 0.723-0.297 1.417-0.825 1.928s-1.245 0.799-1.993 0.799c-0.747 0-1.464-0.287-1.993-0.799s-0.825-1.205-0.825-1.928v-0.123c-0.011-0.451-0.162-0.889-0.433-1.256s-0.651-0.647-1.089-0.803c-0.425-0.181-0.896-0.236-1.354-0.155s-0.879 0.291-1.211 0.605l-0.085 0.082c-0.262 0.254-0.573 0.455-0.915 0.592s-0.709 0.208-1.079 0.208-0.737-0.071-1.079-0.208c-0.342-0.137-0.653-0.338-0.915-0.592s-0.47-0.554-0.612-0.885-0.215-0.686-0.215-1.044c0-0.358 0.073-0.713 0.215-1.044s0.35-0.632 0.612-0.885l0.085-0.082c0.325-0.321 0.543-0.73 0.626-1.172s0.027-0.899-0.161-1.31c-0.179-0.403-0.475-0.747-0.853-0.99s-0.821-0.372-1.274-0.374h-0.24c-0.747 0-1.464-0.287-1.993-0.799s-0.825-1.205-0.825-1.928 0.297-1.417 0.825-1.928c0.529-0.511 1.245-0.799 1.993-0.799h0.127c0.466-0.011 0.919-0.157 1.298-0.419s0.668-0.63 0.83-1.053c0.188-0.411 0.244-0.867 0.161-1.31s-0.301-0.851-0.626-1.172l-0.085-0.082c-0.262-0.253-0.47-0.554-0.612-0.885s-0.215-0.686-0.215-1.044c0-0.358 0.073-0.713 0.215-1.044s0.35-0.632 0.612-0.885c0.262-0.254 0.573-0.455 0.915-0.592s0.709-0.208 1.079-0.208c0.37 0 0.737 0.071 1.079 0.208s0.653 0.338 0.915 0.592l0.085 0.082c0.332 0.314 0.754 0.525 1.211 0.605s0.929 0.026 1.354-0.155h0.113c0.417-0.173 0.772-0.46 1.023-0.826s0.385-0.795 0.386-1.233v-0.232c0-0.723 0.297-1.417 0.825-1.928s1.245-0.799 1.993-0.799 1.464 0.287 1.993 0.799c0.529 0.511 0.825 1.205 0.825 1.928v0.123c0.002 0.439 0.136 0.867 0.387 1.233s0.606 0.653 1.023 0.826c0.425 0.182 0.896 0.236 1.354 0.155s0.879-0.291 1.211-0.605l0.085-0.082c0.262-0.254 0.573-0.455 0.915-0.592s0.709-0.208 1.079-0.208c0.37 0 0.737 0.071 1.079 0.208s0.653 0.338 0.915 0.592c0.262 0.253 0.47 0.554 0.612 0.885s0.215 0.686 0.215 1.044c0 0.358-0.073 0.713-0.215 1.044s-0.35 0.632-0.612 0.885l-0.085 0.082c-0.325 0.321-0.543 0.73-0.626 1.172s-0.027 0.899 0.161 1.31v0.109c0.179 0.403 0.475 0.747 0.853 0.99s0.821 0.372 1.274 0.374h0.239c0.747 0 1.464 0.287 1.993 0.799s0.825 1.205 0.825 1.928-0.297 1.417-0.825 1.929c-0.529 0.511-1.245 0.799-1.993 0.799h-0.127c-0.453 0.002-0.896 0.132-1.274 0.374s-0.675 0.586-0.853 0.99z">
            </path>
        </symbol>
        <symbol id="icon-twitter" viewBox="0 0 39 32">
            <path fill="#fff" style="fill: var(--color1, #fff)"
                d="M34.856 7.865c0.025 0.345 0.025 0.69 0.025 1.036 0 10.528-8.012 22.658-22.657 22.658-4.512 0-8.703-1.307-12.228-3.575 0.641 0.074 1.257 0.099 1.923 0.099 3.723 0 7.15-1.258 9.886-3.402-3.501-0.074-6.435-2.367-7.445-5.523 0.493 0.074 0.986 0.123 1.504 0.123 0.715 0 1.43-0.099 2.096-0.271-3.649-0.74-6.385-3.945-6.385-7.816v-0.099c1.060 0.592 2.293 0.962 3.599 1.011-2.145-1.43-3.55-3.871-3.55-6.632 0-1.479 0.394-2.835 1.085-4.019 3.92 4.832 9.812 7.988 16.419 8.334-0.123-0.592-0.197-1.208-0.197-1.824 0-4.389 3.55-7.964 7.963-7.964 2.293 0 4.364 0.962 5.818 2.515 1.8-0.345 3.525-1.011 5.054-1.923-0.592 1.849-1.849 3.402-3.501 4.389 1.602-0.173 3.156-0.616 4.586-1.233-1.085 1.578-2.441 2.983-3.994 4.117z">
            </path>
        </symbol>
        <symbol id="icon-retro" viewBox="0 0 32 32">
            <path fill="#fff" style="fill: var(--color1, #fff)" d="M0 0h32v32h-32v-32z"></path>
            <path fill="#b7b8ba" style="fill: var(--color2, #b7b8ba)"
                d="M11.182 21.426c-0.248-0.045-0.371-0.298-0.557-0.445-0.911-0.974-1.794-1.977-2.682-2.967-0.045-0.124-0.675-0.045-0.321-0.158 0.225-0.011-0.006-0.174-0.045-0.248-0.619-0.664-1.153-1.408-1.788-2.055l-1.254 0.051c-0.096 0.394-0.056 0.822-0.073 1.233 0.011 0.518-0.045 1.025-0.034 1.548 0.056 0.377 0.585 0.158 0.759 0.383-0.101 0.005-0.214 0.040-0.309 0h-2.176c-0.028-0.158 0.163-0.051 0.231-0.107 0.253-0.045 0.799 0.045 0.742-0.355 0.028-1.982 0.18-3.964 0.062-5.952 0.107-0.428-0.427-0.327-0.68-0.383-0.141 0.034-0.512-0.113-0.135-0.113 1.372-0.017 2.812-0.107 4.161 0.237 0.169 0.045 0.321 0.124 0.461 0.231 0.135 0.062 0.202 0.287 0.371 0.259 1.468 0.028 2.924 0.068 4.392 0.017 0.185-0.028 0.484 0.073 0.585-0.124-0.034-0.163 0.27-0.388 0.203-0.090-0.034 0.31-0.101 0.614-0.141 0.923-0.067 0.107 0.028 0.546-0.214 0.327l-0.045-0.507c-0.534-0.31-1.187-0.242-1.771-0.343-0.309-0.017-0.619-0.028-0.928-0.028-0.208-0.051-0.191 0.225-0.203 0.355l-0.073 1.774c0.011 0.265 0.366 0.158 0.523 0.186 0.568 0.011 1.13-0.006 1.693-0.062 0.18-0.056 0.495 0.056 0.54-0.197 0.022-0.079 0.191-0.265 0.141-0.051-0.022 0.321-0.146 0.619-0.169 0.929-0.264 0.529-0.107-0.231-0.248-0.338-0.607-0.135-1.226-0.158-1.85-0.169-0.197 0.011-0.455-0.062-0.619 0.056l-0.028 0.529c0.039 0.349 0.017 0.681 0.028 1.019 0.051 0.259-0.011 0.518 0.051 0.771-0.073 0.276 0.163 0.265 0.354 0.248 0.641 0.022 1.288-0.028 1.923-0.079 0.292-0.056 0.714 0 0.883-0.293 0.113-0.174 0.107-0.433 0.276-0.569 0.112 0.129-0.034 0.405-0.062 0.569-0.084 0.338-0.129 0.676-0.231 1.008-0.062 0.169-0.197-0.039-0.152-0.124 0.062-0.405-0.388-0.281-0.635-0.31-1.091-0.067-2.154-0.051-3.239-0.079-0.382 0 0.017 0.327 0.079 0.462 0.585 0.743 1.175 1.475 1.743 2.23 0.129 0.135 0.242 0.281 0.354 0.433 0.062 0.096 0.382 0.293 0.107 0.366zM24.981 20.272c-0.411-0.011-0.799-0.13-1.17-0.265-0.236-0.056-0.478-0.203-0.062-0.123 0.219 0.079 0.467 0.107 0.692 0.090 0.99 0.101 1.878-0.467 2.682-0.974 0.495-0.36 1.282-0.507 1.884-0.462 0.062 0.040 0.309 0.062 0.073 0.124-0.81 0.124-1.271 0.732-1.957 1.143-0.663 0.439-1.35 0.546-2.142 0.468zM13.898 19.664c-0.141 0.034-0.669 0.017-0.264-0.073 0.214 0.011 0.405-0.045 0.619-0.045 0.157-0.056 0.54 0.028 0.478-0.248 0.022-0.979 0.073-1.948 0.045-2.922l0.028-0.681c0.011-1.515 0.034-3.001-0.011-4.499 0.045-0.191-0.158-0.174-0.281-0.169-0.562-0.006-1.136 0-1.693 0.096-0.304 0.040-0.692 0.068-0.894 0.321-0.028 0.214-0.084 0.411-0.124 0.619 0.006 0.315-0.264 0.338-0.157 0 0.051-0.383 0.062-0.771 0.112-1.16 0.079-0.259-0.101-0.636 0.118-0.833 0.073 0.197 0.034 0.422 0.124 0.619 0.636 0.118 1.293 0.073 1.929 0.135l2.744 0.017 1.496-0.028c0.202-0.051 0.517 0.045 0.495-0.265 0.011-0.146 0.208-0.653 0.214-0.214-0.107 0.507-0.124 1.036-0.214 1.543-0.045 0.208-0.006 0.428-0.107 0.619-0.163 0.079-0.084-0.152-0.096-0.214-0.005-0.203 0.023-0.417 0-0.619 0.124-0.417-0.467-0.366-0.709-0.467-0.613-0.068-1.226-0.146-1.85-0.169-0.298-0.079-0.326 0.18-0.309 0.405-0.006 1.036-0.067 2.061-0.062 3.086 0.005 1.284 0.051 2.523 0 3.789 0.034 0.231 0.028 0.462 0.034 0.693 0.039 0.152-0.096 0.445 0.107 0.495 0.259 0.023 0.512 0.090 0.77 0.096 0.051 0.028 0.517 0.023 0.276 0.124-0.84-0.032-1.826-0.050-2.817-0.050h-0zM25.060 19.157c-1.012-0.045-2.064-0.27-2.778-1.036-1.76-1.684-0.99-4.865 1.204-5.777 0.731-0.388 1.569-0.445 2.39-0.388 0.99 0.028 1.962 0.445 2.637 1.177 1.693 1.914 0.484 5.22-1.94 5.822-0.483 0.146-0.989 0.225-1.513 0.203zM22.44 18.926c-0.365 0.186-0.636-0.298-0.894-0.479-0.329-0.312-0.636-0.615-0.939-0.923l-0.006-0.006c-0.321-0.287-0.579-0.659-0.922-0.929-0.141-0.192-0.326-0.344-0.478-0.524-0.219-0.299-0.624-0.090-0.928-0.141-0.247-0.028-0.692-0.056-0.568 0.343l0.017 1.143c0 0.327-0.005 0.636 0.011 0.94-0.056 0.299 0.315 0.197 0.478 0.265 0.101 0.034 0.208 0.023 0.309 0.045 0.073-0.051 0.303 0.073 0.096 0.062-0.624-0.011-1.226-0.011-1.85-0.017h-0.619c-0.045-0.034-0.304 0.079-0.214-0.062 0.304-0.034 0.624-0.051 0.922-0.124 0.141-0.146 0.068-0.411 0.096-0.602 0.040-1.442 0.034-2.883 0.028-4.324 0.005-0.208-0.034-0.411-0.028-0.619-0.197-0.118-0.461-0.084-0.68-0.141-0.186 0.051-0.484-0.107-0.107-0.090 1.31-0.023 2.62-0.062 3.931 0.152 0.585 0.096 1.293 0.524 1.142 1.205-0.118 0.512-0.517 0.884-0.911 1.194-0.118 0.158-0.613 0.253-0.326 0.507 0.732 1.098 1.58 2.123 2.441 3.125zM25.431 18.831c0.523 0.006 1.068-0.073 1.541-0.31 1.35-0.586 1.878-2.314 1.479-3.66-0.433-1.751-2.356-2.979-4.133-2.551-1.018 0.174-1.974 0.94-2.204 1.976-0.658 2.078 1.097 4.482 3.318 4.544zM8.544 17.766c0.27 0.045 0.186-0.338 0.219-0.495 0.022-0.873 0.022-1.751 0.062-2.624-0.039-0.619 0-1.25-0.079-1.858-0.202-0.028-0.405-0.096-0.619-0.090-0.366-0.079-0.090 0.276-0.124 0.445 0.056 0.462-0.225 0.873-0.489 1.222-0.219 0.327-0.568 0.529-0.832 0.805 0.388 0.76 1.001 1.396 1.479 2.117 0.135 0.152 0.225 0.338 0.383 0.478zM17.733 15.773c0.793 0.034 1.687 0 2.3-0.574 0.427-0.422 0.613-1.182 0.169-1.667-0.377-0.31-0.832-0.495-1.31-0.574-0.332-0.034-0.664-0.062-1.001-0.073-0.281 0.146-0.068 0.602-0.169 0.861 0.023 0.664-0.073 1.351 0.011 2.027zM4.524 15.356c0.062-0.017 0.124 0.045 0.186 0l0.489-0.017c0.866-0.017 1.749-0.479 1.962-1.363 0.186-0.602-0.079-1.261-0.635-1.56-0.411-0.214-0.855-0.332-1.31-0.372-0.27-0.011-0.782-0.18-0.681 0.298-0.073 0.766-0.017 1.543-0.062 2.314 0.034 0.231-0.017 0.456 0.051 0.698zM25.071 21.905c-0.411-0.011-0.798-0.124-1.17-0.259-0.236-0.056-0.478-0.209-0.062-0.124 0.219 0.073 0.467 0.107 0.692 0.090 0.99 0.101 1.878-0.473 2.682-0.974 0.495-0.36 1.282-0.507 1.884-0.461 0.062 0.039 0.309 0.062 0.079 0.123-0.815 0.118-1.276 0.727-1.963 1.143-0.664 0.433-1.35 0.546-2.143 0.462z">
            </path>
        </symbol>
        <symbol id="icon-natural-1" viewBox="0 0 32 32">
            <path fill="#fff" style="fill: var(--color1, #fff)" d="M0 0h32v32h-32v-32z"></path>
            <path fill="#b7b8ba" style="fill: var(--color2, #b7b8ba)"
                d="M3.653 16.609c0.185-0.628 1.39-4.75 1.417-5.31h0.972s2.015 3.728 2.137 3.849l0.903-3.849h0.284l-1.245 5.308h-0.335l-2.402-4.741-0.122 0.122s-0.99 4.255-1.326 4.62l-0.282 0.002zM9.292 14.672c0.142-0.311 0.672-1.306 1.635-1.306 0 0 0.514-0.020 0.818 0.527l0.094-0.527h0.831s-1.208 3.1-0.357 3.019c0 0 1.114 0 1.682-2.675h-0.729l0.033-0.344h0.729s0.216-0.729 0.243-0.932h0.77s-0.109 0.689-0.243 0.932h0.892s0.007 0.284-0.073 0.446h-0.932s-1.033 2.796-0.182 2.553c0 0 1.403 0.061 1.735-2.999h0.831s-1.249 3.14-0.337 2.999c0 0 1.119 0 1.532-2.999h0.729s-1.087 3.323-0.357 3.039c0.729-0.284 1.241-0.892 1.573-3.039h0.729s-0.215 0.506-0.215 0.77c0 0 0.511-0.75 1.046-0.77 0 0 0.94 0.122 0.676 0.729l0.142-0.020s0.445-0.709 1.208-0.709c0 0 0.555 0.020 0.818 0.547 0 0 0.127-0.284 0.154-0.547h0.77s-1.147 3.14-0.357 2.958c0.79-0.182 1.033-0.628 1.337-1.236 0 0 0.75-3.445 1.135-4.255h0.79s-2.027 5.673-1.135 5.511c0 0 0.385 0.203 1.013-0.871h0.243s-0.258 1.155-1.365 1.135c0 0-0.742 0.122-0.823-0.932 0 0-0.4 0.952-1.426 0.932 0 0-0.438 0.162-0.701-0.486 0 0-0.466 0.446-1.041 0.486-0.707 0.050-1.167-0.75-1.187-1.357 0 0-0.081-0.385 0.263-0.831 0 0-0.709 0.243-0.648-0.588 0 0-1.074-0.041-1.48 2.735h-0.757s-0.093-0.142 0.19-0.648c0 0-0.664 0.932-1.183 0.689 0 0-0.722-0.122-0.722-0.831 0 0-0.461 1.033-1.325 0.831 0 0-0.559 0.020-0.64-0.871 0 0-0.603 1.134-1.406 0.871 0 0-0.742 0.122-0.843-0.871 0 0-0.643 1.074-1.426 0.871 0 0-0.499 0.061-0.661-0.486 0 0-0.562 0.689-1.142 0.486 0 0-1.305-0.228-1.018-1.697 0.016-0.087 0.035-0.158 0.071-0.238zM10.807 13.617c-0.262 0.098-1.020 0.489-0.987 1.714 0 0 0.122 0.892 0.729 1.033 0 0 0.486 0.142 0.952-1.013 0 0 0.483-1.546-0.532-1.75-0.071-0.014-0.093-0.010-0.163 0.016zM23.624 13.638c-0.295 0.127-0.966 0.536-0.918 1.612 0 0 0.101 0.973 0.709 1.114 0 0 0.486 0.142 0.952-1.013 0 0 0.46-1.472-0.462-1.733-0.123-0.035-0.164-0.031-0.282 0.020zM13.113 17.57s3.252-0.243 6.2 0.669c0 0 1.459 0.547 3.404 0.638 0 0 3.222-0.031 4.225-1.216 0 0-1.033 1.702-5.227 1.884 0 0-1.033 0.061-3.363-0.79 0 0-2.29-0.973-5.238-1.186z">
            </path>
            <path fill="#b7b8ba" style="fill: var(--color2, #b7b8ba)"
                d="M3.782 18.33s4.072-1.094 8.388 0.122c0 0 2.006 0.486 5.41 1.58 0 0 2.857 0.972 4.559 0.972 0 0 2.918 0.061 5.592-2.37 0 0-2.614 3.343-6.321 3.039 0 0-1.094 0.091-6.626-1.702-0 0-8.388-2.614-11.002-1.641z">
            </path>
        </symbol>
        <symbol id="icon-new-wave" viewBox="0 0 32 32">
            <path fill="#fff" style="fill: var(--color1, #fff)" d="M0 0h32v32h-32v-32z"></path>
            <path fill="#b7b8ba" style="fill: var(--color2, #b7b8ba)"
                d="M3.378 16.788l-0.162 0.022 0.162 0.030 0.243 0.041h0.891l0.438-0.505 0.519-0.596 0.571-0.659h-0.902l-0.449 0.059 0.342 0.066-0.037 0.044-0.445 0.052 0.339 0.066-0.037 0.044-0.449 0.055 0.346 0.063-0.037 0.044-0.335 0.040-0.111 0.015 0.111 0.022 0.228 0.044-0.037 0.040-0.191 0.026-0.099 0.011-0.125-0.692h-0.88l-0.442 0.055 0.342 0.066-0.041 0.044-0.442 0.052 0.339 0.066-0.041 0.044-0.445 0.055 0.342 0.063-0.037 0.044-0.445 0.055 0.342 0.066-0.041 0.044-0.445 0.052 0.342 0.066-0.037 0.044-0.445 0.055 0.342 0.063-0.041 0.044-0.442 0.055 0.339 0.066-0.037 0.041-0.449 0.055 0.346 0.066-0.041 0.044-0.442 0.052 0.339 0.066-0.037 0.044-0.445 0.055 0.342 0.063-0.040 0.048-0.442 0.055 0.335 0.070h0.902l0.482-0.556 0.394 0.059 0.007 0.044-0.155 0.022-0.227 0.029 0.409 0.067 0.007 0.044-0.188 0.030-0.191 0.026 0.191 0.030 0.21 0.033 0.007 0.048-0.217 0.033zM27.209 16.589l-0.441 0.055 0.338 0.063-0.037 0.048-0.446 0.055 0.335 0.070h2.154l0.349-0.401h-1.215l0.239-0.28h0.939l0.361-0.412h-0.942l0.221-0.258h1.167l0.357-0.409h-2.102l-0.442 0.055 0.339 0.066-0.037 0.044-0.442 0.052 0.338 0.066-0.041 0.044-0.445 0.055 0.338 0.063-0.037 0.044-0.442 0.055 0.342 0.066-0.041 0.044-0.445 0.052 0.342 0.066-0.041 0.044-0.442 0.055 0.342 0.063-0.041 0.044-0.427 0.052-0.018 0.003 0.342 0.066-0.041 0.041-0.283 0.037-0.166 0.018 0.166 0.033 0.18 0.033-0.037 0.044-0.144 0.018-0.298 0.033 0.298 0.059 0.041 0.007-0.037 0.044h-0.003zM27.209 15.529l-1.929 1.352h-0.939l0.004-0.007-0.273-0.048-0.092-0.015 0.092-0.011 0.306-0.041 0.015-0.052-0.365-0.063 0.044-0.007 0.357-0.044 0.015-0.048-0.361-0.066 0.398-0.048 0.015-0.052-0.368-0.063 0.401-0.052 0.015-0.048-0.364-0.063 0.401-0.052 0.015-0.052-0.376-0.059 0.412-0.055 0.015-0.044-0.379-0.066 0.412-0.052 0.015-0.048-0.376-0.063 0.409-0.055 0.015-0.044-0.372-0.063 0.409-0.055 0.015-0.044-0.368-0.066 0.405-0.052 0.015-0.048-0.372-0.063 0.409-0.055h0.95l-0.32 0.733-0.055 0.125 0.055-0.007 0.269-0.033 0.063-0.048-0.302-0.063 0.457-0.052 0.063-0.048-0.302-0.063 0.453-0.051 0.063-0.048-0.302-0.063 0.449-0.055 0.066-0.048-0.294-0.063 0.442-0.048 0.066-0.051-0.298-0.063 0.449-0.055h0.942l-0.585 0.409zM25.512 16.107l0.055-0.004 0.063-0.048-0.118-0.026-0.074-0.015-0.048 0.107 0.121-0.015zM25.365 16.258l0.052-0.041-0.052-0.011h-0.011l-0.041 0.088 0.051-0.037zM24.073 15.437l-0.416 1.443h-0.928l-0.011-0.003-0.35-0.066 0.405-0.055 0.015-0.048-0.070-0.011-0.228-0.041h-0.608l-0.301 0.225h-0.917l-0.283-0.070 0.46-0.055 0.074-0.048-0.294-0.063 0.46-0.055 0.066-0.044-0.287-0.066 0.287-0.029 0.169-0.018 0.074-0.052-0.243-0.048-0.059-0.015 0.059-0.007 0.409-0.044 0.070-0.048-0.294-0.063 0.464-0.052 0.066-0.048-0.298-0.063 0.471-0.055 0.063-0.048-0.298-0.063 0.471-0.052 0.063-0.048-0.298-0.063 0.471-0.055 0.063-0.044-0.298-0.063 0.449-0.052 0.022-0.004 0.066-0.048-0.088-0.018-0.206-0.044 0.206-0.022 0.254-0.029 0.066-0.048-0.291-0.063 0.464-0.055h0.953l-0.092 0.317zM23.119 15.893l0.003-0.004h-0.003l-0.18-0.029-0.155 0.118 0.32-0.040 0.015-0.044zM23.119 15.779l0.044-0.004 0.048-0.118-0.092 0.066-0.088 0.066 0.088-0.011zM22.718 16.287h0.254l0.026-0.066-0.28-0.052-0.092-0.015 0.092-0.011 0.324-0.044 0.018-0.044-0.309-0.055-0.033 0.026-0.339 0.261 0.339 0zM21.146 15.724l-1.148 0.907-0.166 0.129-0.155 0.122h-0.917l-0.357-0.070 0.133-0.018 0.294-0.037 0.026-0.048-0.365-0.063 0.044-0.007 0.383-0.048 0.026-0.044-0.357-0.066 0.419-0.052 0.022-0.044-0.283-0.052-0.21 0.173-0.166 0.144-0.276 0.232h-0.913l-0.357-0.070 0.412-0.055 0.022-0.048-0.357-0.063 0.412-0.055 0.022-0.044-0.361-0.066 0.416-0.052 0.022-0.048-0.368-0.063 0.423-0.052 0.022-0.048-0.365-0.063 0.416-0.052 0.026-0.048-0.372-0.063 0.424-0.055 0.022-0.044-0.368-0.066 0.423-0.052 0.018-0.044-0.364-0.066 0.424-0.055 0.018-0.044-0.364-0.063 0.419-0.055 0.018-0.044-0.361-0.066 0.416-0.052 0.018-0.048-0.361-0.063 0.416-0.055h0.902l-0.313 0.541 0.398-0.048 0.063-0.052-0.309-0.059 0.361-0.044 0.081-0.011 0.059-0.048-0.14-0.029-0.162-0.033 0.162-0.018 0.159-0.018 0.11-0.011 0.063-0.051-0.173-0.037-0.133-0.026 0.133-0.015 0.342-0.040h0.751l-0.302 0.541 0.398-0.048 0.055-0.048-0.313-0.063 0.445-0.055 0.059-0.048-0.305-0.063 0.434-0.048 0.059-0.051-0.305-0.063 0.475-0.055h0.869l-0.769 0.604zM19.998 15.945l0.066-0.007 0.055-0.048-0.121-0.022-0.063-0.015-0.059 0.107 0.122-0.015zM19.998 15.805l0.254-0.029 0.055-0.048-0.272-0.055-0.037 0.070-0.037 0.066 0.037-0.004zM19.832 16.14l0.096-0.085-0.096-0.022v0.004l-0.1 0.177h0.011l0.089-0.074zM19.254 15.937h0.015l0.041-0.077h-0.011l-0.044 0.037-0.055 0.048 0.055-0.007zM19.096 16.261l0.022-0.044-0.022-0.003-0.177-0.033-0.147 0.125 0.32-0.041 0.003-0.004zM19.096 16.114l0.085-0.011 0.026-0.052-0.111-0.018h-0.003l-0.111 0.096 0.114-0.015zM18.536 15.746l-0.037 0.066 0.037-0.007 0.258-0.029 0.055-0.048-0.269-0.055-0.044 0.074zM18.536 15.864l-0.059-0.011-0.063 0.107 0.122-0.015 0.066-0.007 0.055-0.048-0.121-0.026zM18.371 16.136l0.099-0.085-0.096-0.018-0.003 0.003-0.1 0.177h0.011l0.088-0.077zM11.826 15.79l0.118-0.015 0.059-0.048-0.177-0.033-0.096-0.022-0.040 0.070-0.037 0.066 0.037-0.004 0.136-0.015zM11.826 15.65l0.309-0.037 0.055-0.048-0.313-0.063 0.445-0.055 0.055-0.048-0.302-0.063 0.434-0.048 0.059-0.051-0.306-0.063 0.471-0.055h0.869l-2.234 1.76h-0.917l-0.085-0.018-0.14-0.026-0.132-0.026 0.132-0.018 0.14-0.015 0.155-0.022 0.026-0.048-0.18-0.029-0.14-0.026-0.044-0.007 0.044-0.007 0.14-0.015 0.243-0.033 0.026-0.044-0.269-0.048-0.088-0.018 0.088-0.007 0.272-0.037 0.059-0.007 0.026-0.044-0.085-0.015-0.203-0.037-0.070 0.059-0.14 0.114-0.166 0.144-0.276 0.232h-0.913l-0.357-0.070 0.169-0.022 0.243-0.033 0.022-0.048-0.265-0.048-0.092-0.015 0.092-0.011 0.32-0.044 0.022-0.044-0.342-0.063-0.018-0.004h0.018l0.398-0.052 0.022-0.048-0.364-0.063 0.42-0.052 0.022-0.048-0.364-0.063 0.42-0.052 0.022-0.048-0.372-0.063 0.423-0.055 0.022-0.044-0.368-0.066 0.423-0.052 0.022-0.044-0.368-0.066 0.423-0.055 0.018-0.044-0.364-0.063 0.42-0.055 0.018-0.044-0.357-0.066 0.412-0.052 0.022-0.048-0.361-0.063 0.412-0.055h0.902l-0.309 0.541 0.088-0.011 0.272-0.033 0.037-0.004 0.059-0.052-0.096-0.018-0.213-0.040 0.213-0.026 0.147-0.018 0.081-0.011 0.059-0.048-0.14-0.029-0.147-0.029-0.015-0.004h0.015l0.147-0.018 0.158-0.018 0.114-0.011 0.059-0.051-0.173-0.037-0.132-0.026 0.132-0.015 0.342-0.040h0.751l-0.213 0.379-0.088 0.162 0.088-0.011zM14.384 16.055l-0.040 0.047-0.431 0.052 0.335 0.063-0.044 0.048-0.427 0.052 0.324 0.070h1.067l0.383-0.457h-1.067l-0.445 0.063 0.346 0.063zM11.689 15.945l0.066-0.007 0.055-0.048-0.122-0.022-0.063-0.015-0.059 0.107 0.121-0.015zM11.524 16.14l0.096-0.085-0.096-0.022v0.004l-0.099 0.177h0.011l0.088-0.074zM10.946 15.937h0.015l0.040-0.077h-0.011l-0.044 0.037-0.055 0.048 0.055-0.007zM10.813 16.217l-0.026-0.003-0.147-0.030-0.026-0.003-0.151 0.125 0.324-0.041 0.026-0.048zM10.788 16.114l0.088-0.011 0.022-0.052-0.11-0.018-0.111 0.096 0.111-0.015zM10.368 15.79l0.118-0.015 0.055-0.048-0.173-0.037-0.096-0.018-0.044 0.074-0.037 0.066 0.037-0.007 0.14-0.015zM10.228 15.945l0.066-0.007 0.059-0.048-0.125-0.026-0.059-0.011-0.063 0.107 0.122-0.015zM10.062 16.136l0.099-0.085-0.096-0.018-0.004 0.004-0.099 0.177h0.011l0.088-0.077zM8.686 15.12l-1.929-0-0.445 0.055 0.342 0.066-0.040 0.044-0.438 0.052 0.335 0.066-0.037 0.044-0.449 0.055 0.342 0.063-0.037 0.044-0.442 0.055 0.339 0.066-0.040 0.044-0.445 0.052 0.346 0.066-0.040 0.044-0.442 0.055 0.339 0.063-0.040 0.044-0.434 0.055 0.335 0.066-0.040 0.041-0.295 0.037-0.155 0.018 0.346 0.066-0.040 0.044-0.151 0.018-0.287 0.033 0.287 0.056 0.048 0.011-0.037 0.044h-0.011l-0.434 0.055 0.342 0.063-0.040 0.048-0.442 0.055 0.335 0.070h2.15l0.35-0.401h-1.215l0.243-0.28h0.939l0.357-0.412h-0.939l0.221-0.258h1.167l0.184-0.213 0.173-0.195h-0.173zM4.375 16l-0.052 0.059-0.022-0.103-0.015-0.092 0.088 0.015 0.088 0.018-0.037 0.044-0.051 0.059zM3.378 16.004l0.052-0.066 0.007-0.011 0.004 0.007 0.029 0.166-0.092 0.015-0.096 0.011 0.096-0.122zM3.378 16.199l0.118 0.018 0.007 0.044-0.125 0.018-0.243 0.033 0.107-0.132 0.136 0.019z">
            </path>
        </symbol>
        <symbol id="icon-picnic" viewBox="0 0 32 32">
            <path fill="#fff" style="fill: var(--color1, #fff)" d="M0 0h32v32h-32v-32z"></path>
            <path fill="#b7b8ba" style="fill: var(--color2, #b7b8ba)"
                d="M1.907 12.549c11.655-1.554 21.013-1.374 28.681-0.135l-2.050 8.153c-10.495-1.453-18.546-0.845-27.127-0.349l0.496-7.668z">
            </path>
            <path fill="#b7b8ba" style="fill: var(--color2, #b7b8ba)"
                d="M2.515 12.909c8.074-1.464 21.181-1.137 27.487-0.214l-1.712 6.937c-9.031-0.991-18.704-0.946-26.316 0.248l0.541-6.97z">
            </path>
            <path fill="#b7b8ba" style="fill: var(--color2, #b7b8ba)"
                d="M6.873 18.697l0.146-1.971 0.788 0.023c1.126 0.034 2.207-0.631 2.297-1.745 0.101-1.126-0.811-1.757-2.275-1.757l-2.432 0.011-0.45 5.439h1.926zM7.076 15.747l0.113-1.498s1.025 0.090 0.98 0.766c-0.045 0.676-1.092 0.732-1.092 0.732zM10.465 14.249h1.835l-0.225 3.998h-1.869l0.259-3.998zM10.499 13.359c0.023-0.98 1.937-1.081 1.914-0.079s-1.926 1.047-1.914 0.079zM16.231 17.143l0.068 0.811c-0.923 0.552-2.376 0.507-3.13-0.090-0.743-0.597-0.957-1.678-0.214-2.612 0.743-0.923 2.241-1.509 3.671-0.923l-0.191 1.16c-0.574-0.687-1.408-0.439-1.757-0.101-0.36 0.338-0.619 1.148-0.090 1.689 0.54 0.552 1.475 0.214 1.644 0.067zM17.030 14.283h1.543l-0.011 0.259c0.698-0.586 1.644-0.462 1.971-0.225 0.372 0.27 0.529 0.574 0.495 1.227l-0.101 2.725h-1.576l0.113-2.59c0-0.608-0.766-0.619-0.957-0.135l-0.124 2.714h-1.566l0.214-3.975zM21.58 14.238l1.914-0.011-0.124 4.11-1.959-0.023 0.169-4.076zM21.557 13.258c0.023-1.002 2.038-1.036 2.027-0.056-0.011 1.115-2.050 1.070-2.027 0.056zM27.75 17.244l0.068 0.765c-1.149 0.698-2.601 0.439-3.345-0.158-0.755-0.597-0.934-1.734-0.191-2.658 0.743-0.935 2.353-1.475 3.795-0.889l-0.18 1.148c-0.574-0.687-1.52-0.417-1.881-0.079-0.349 0.338-0.586 1.126-0.045 1.678 0.529 0.541 1.61 0.338 1.779 0.192z">
            </path>
            <path fill="#fff" style="fill: var(--color1, #fff)"
                d="M6.659 18.449l0.146-1.971 0.777 0.023c1.126 0.045 2.207-0.631 2.308-1.745s-0.822-1.757-2.286-1.745l-2.421 0.011-0.45 5.428h1.926zM6.851 15.51l0.124-1.498s1.025 0.090 0.98 0.766c-0.056 0.675-1.104 0.732-1.104 0.732zM10.251 14.001l1.824 0.011-0.214 3.986h-1.88l0.27-3.998zM10.285 13.112c0.023-0.98 1.926-1.081 1.914-0.079-0.022 1.014-1.937 1.059-1.914 0.079zM16.006 16.895l0.068 0.822c-0.912 0.541-2.365 0.495-3.119-0.101s-0.957-1.678-0.214-2.613c0.743-0.923 2.241-1.498 3.671-0.912l-0.191 1.148c-0.574-0.687-1.419-0.439-1.768-0.101s-0.619 1.149-0.079 1.7c0.541 0.541 1.464 0.203 1.633 0.056zM16.816 14.035h1.532l-0.011 0.27c0.698-0.597 1.644-0.473 1.982-0.237 0.372 0.27 0.518 0.574 0.495 1.227l-0.113 2.725h-1.576l0.113-2.59c0.011-0.608-0.765-0.619-0.946-0.135l-0.135 2.725-1.565-0.011 0.225-3.975zM21.354 13.99l1.914-0.011-0.124 4.11-1.959-0.023 0.169-4.076zM21.332 13.022c0.022-1.013 2.050-1.036 2.038-0.068-0.011 1.115-2.049 1.070-2.038 0.068zM27.536 16.997l0.068 0.766c-1.148 0.698-2.601 0.439-3.356-0.158-0.743-0.597-0.923-1.723-0.18-2.658 0.743-0.923 2.353-1.464 3.784-0.878l-0.169 1.149c-0.574-0.698-1.531-0.428-1.881-0.090s-0.597 1.137-0.056 1.678 1.611 0.338 1.791 0.192z">
            </path>
        </symbol>
        <symbol id="icon-retro1" viewBox="0 0 32 32">
            <path fill="#fff" style="fill: var(--color1, #fff)" d="M0 0h32v32h-32v-32z"></path>
            <path fill="#b7b8ba" style="fill: var(--color2, #b7b8ba)"
                d="M11.182 21.426c-0.248-0.045-0.371-0.298-0.557-0.445-0.911-0.974-1.794-1.977-2.682-2.967-0.045-0.124-0.675-0.045-0.321-0.158 0.225-0.011-0.006-0.174-0.045-0.248-0.619-0.664-1.153-1.408-1.788-2.055l-1.254 0.051c-0.096 0.394-0.056 0.822-0.073 1.233 0.011 0.518-0.045 1.025-0.034 1.548 0.056 0.377 0.585 0.158 0.759 0.383-0.101 0.005-0.214 0.040-0.309 0h-2.176c-0.028-0.158 0.163-0.051 0.231-0.107 0.253-0.045 0.799 0.045 0.742-0.355 0.028-1.982 0.18-3.964 0.062-5.952 0.107-0.428-0.427-0.327-0.68-0.383-0.141 0.034-0.512-0.113-0.135-0.113 1.372-0.017 2.812-0.107 4.161 0.237 0.169 0.045 0.321 0.124 0.461 0.231 0.135 0.062 0.202 0.287 0.371 0.259 1.468 0.028 2.924 0.068 4.392 0.017 0.185-0.028 0.484 0.073 0.585-0.124-0.034-0.163 0.27-0.388 0.203-0.090-0.034 0.31-0.101 0.614-0.141 0.923-0.067 0.107 0.028 0.546-0.214 0.327l-0.045-0.507c-0.534-0.31-1.187-0.242-1.771-0.343-0.309-0.017-0.619-0.028-0.928-0.028-0.208-0.051-0.191 0.225-0.203 0.355l-0.073 1.774c0.011 0.265 0.366 0.158 0.523 0.186 0.568 0.011 1.13-0.006 1.693-0.062 0.18-0.056 0.495 0.056 0.54-0.197 0.022-0.079 0.191-0.265 0.141-0.051-0.022 0.321-0.146 0.619-0.169 0.929-0.264 0.529-0.107-0.231-0.248-0.338-0.607-0.135-1.226-0.158-1.85-0.169-0.197 0.011-0.455-0.062-0.619 0.056l-0.028 0.529c0.039 0.349 0.017 0.681 0.028 1.019 0.051 0.259-0.011 0.518 0.051 0.771-0.073 0.276 0.163 0.265 0.354 0.248 0.641 0.022 1.288-0.028 1.923-0.079 0.292-0.056 0.714 0 0.883-0.293 0.113-0.174 0.107-0.433 0.276-0.569 0.112 0.129-0.034 0.405-0.062 0.569-0.084 0.338-0.129 0.676-0.231 1.008-0.062 0.169-0.197-0.039-0.152-0.124 0.062-0.405-0.388-0.281-0.635-0.31-1.091-0.067-2.154-0.051-3.239-0.079-0.382 0 0.017 0.327 0.079 0.462 0.585 0.743 1.175 1.475 1.743 2.23 0.129 0.135 0.242 0.281 0.354 0.433 0.062 0.096 0.382 0.293 0.107 0.366zM24.981 20.272c-0.411-0.011-0.799-0.13-1.17-0.265-0.236-0.056-0.478-0.203-0.062-0.123 0.219 0.079 0.467 0.107 0.692 0.090 0.99 0.101 1.878-0.467 2.682-0.974 0.495-0.36 1.282-0.507 1.884-0.462 0.062 0.040 0.309 0.062 0.073 0.124-0.81 0.124-1.271 0.732-1.957 1.143-0.663 0.439-1.35 0.546-2.142 0.468zM13.898 19.664c-0.141 0.034-0.669 0.017-0.264-0.073 0.214 0.011 0.405-0.045 0.619-0.045 0.157-0.056 0.54 0.028 0.478-0.248 0.022-0.979 0.073-1.948 0.045-2.922l0.028-0.681c0.011-1.515 0.034-3.001-0.011-4.499 0.045-0.191-0.158-0.174-0.281-0.169-0.562-0.006-1.136 0-1.693 0.096-0.304 0.040-0.692 0.068-0.894 0.321-0.028 0.214-0.084 0.411-0.124 0.619 0.006 0.315-0.264 0.338-0.157 0 0.051-0.383 0.062-0.771 0.112-1.16 0.079-0.259-0.101-0.636 0.118-0.833 0.073 0.197 0.034 0.422 0.124 0.619 0.636 0.118 1.293 0.073 1.929 0.135l2.744 0.017 1.496-0.028c0.202-0.051 0.517 0.045 0.495-0.265 0.011-0.146 0.208-0.653 0.214-0.214-0.107 0.507-0.124 1.036-0.214 1.543-0.045 0.208-0.006 0.428-0.107 0.619-0.163 0.079-0.084-0.152-0.096-0.214-0.005-0.203 0.023-0.417 0-0.619 0.124-0.417-0.467-0.366-0.709-0.467-0.613-0.068-1.226-0.146-1.85-0.169-0.298-0.079-0.326 0.18-0.309 0.405-0.006 1.036-0.067 2.061-0.062 3.086 0.005 1.284 0.051 2.523 0 3.789 0.034 0.231 0.028 0.462 0.034 0.693 0.039 0.152-0.096 0.445 0.107 0.495 0.259 0.023 0.512 0.090 0.77 0.096 0.051 0.028 0.517 0.023 0.276 0.124-0.84-0.032-1.826-0.050-2.817-0.050h-0zM25.060 19.157c-1.012-0.045-2.064-0.27-2.778-1.036-1.76-1.684-0.99-4.865 1.204-5.777 0.731-0.388 1.569-0.445 2.39-0.388 0.99 0.028 1.962 0.445 2.637 1.177 1.693 1.914 0.484 5.22-1.94 5.822-0.483 0.146-0.989 0.225-1.513 0.203zM22.44 18.926c-0.365 0.186-0.636-0.298-0.894-0.479-0.329-0.312-0.636-0.615-0.939-0.923l-0.006-0.006c-0.321-0.287-0.579-0.659-0.922-0.929-0.141-0.192-0.326-0.344-0.478-0.524-0.219-0.299-0.624-0.090-0.928-0.141-0.247-0.028-0.692-0.056-0.568 0.343l0.017 1.143c0 0.327-0.005 0.636 0.011 0.94-0.056 0.299 0.315 0.197 0.478 0.265 0.101 0.034 0.208 0.023 0.309 0.045 0.073-0.051 0.303 0.073 0.096 0.062-0.624-0.011-1.226-0.011-1.85-0.017h-0.619c-0.045-0.034-0.304 0.079-0.214-0.062 0.304-0.034 0.624-0.051 0.922-0.124 0.141-0.146 0.068-0.411 0.096-0.602 0.040-1.442 0.034-2.883 0.028-4.324 0.005-0.208-0.034-0.411-0.028-0.619-0.197-0.118-0.461-0.084-0.68-0.141-0.186 0.051-0.484-0.107-0.107-0.090 1.31-0.023 2.62-0.062 3.931 0.152 0.585 0.096 1.293 0.524 1.142 1.205-0.118 0.512-0.517 0.884-0.911 1.194-0.118 0.158-0.613 0.253-0.326 0.507 0.732 1.098 1.58 2.123 2.441 3.125zM25.431 18.831c0.523 0.006 1.068-0.073 1.541-0.31 1.35-0.586 1.878-2.314 1.479-3.66-0.433-1.751-2.356-2.979-4.133-2.551-1.018 0.174-1.974 0.94-2.204 1.976-0.658 2.078 1.097 4.482 3.318 4.544zM8.544 17.766c0.27 0.045 0.186-0.338 0.219-0.495 0.022-0.873 0.022-1.751 0.062-2.624-0.039-0.619 0-1.25-0.079-1.858-0.202-0.028-0.405-0.096-0.619-0.090-0.366-0.079-0.090 0.276-0.124 0.445 0.056 0.462-0.225 0.873-0.489 1.222-0.219 0.327-0.568 0.529-0.832 0.805 0.388 0.76 1.001 1.396 1.479 2.117 0.135 0.152 0.225 0.338 0.383 0.478zM17.733 15.773c0.793 0.034 1.687 0 2.3-0.574 0.427-0.422 0.613-1.182 0.169-1.667-0.377-0.31-0.832-0.495-1.31-0.574-0.332-0.034-0.664-0.062-1.001-0.073-0.281 0.146-0.068 0.602-0.169 0.861 0.023 0.664-0.073 1.351 0.011 2.027zM4.524 15.356c0.062-0.017 0.124 0.045 0.186 0l0.489-0.017c0.866-0.017 1.749-0.479 1.962-1.363 0.186-0.602-0.079-1.261-0.635-1.56-0.411-0.214-0.855-0.332-1.31-0.372-0.27-0.011-0.782-0.18-0.681 0.298-0.073 0.766-0.017 1.543-0.062 2.314 0.034 0.231-0.017 0.456 0.051 0.698zM25.071 21.905c-0.411-0.011-0.798-0.124-1.17-0.259-0.236-0.056-0.478-0.209-0.062-0.124 0.219 0.073 0.467 0.107 0.692 0.090 0.99 0.101 1.878-0.473 2.682-0.974 0.495-0.36 1.282-0.507 1.884-0.461 0.062 0.039 0.309 0.062 0.079 0.123-0.815 0.118-1.276 0.727-1.963 1.143-0.664 0.433-1.35 0.546-2.143 0.462z">
            </path>
        </symbol>
        <symbol id="icon-a-2" viewBox="0 0 32 32">
            <path fill="#fff" style="fill: var(--color1, #fff)" d="M0 0h32v32h-32v-32z"></path>
            <path fill="#b7b8ba" style="fill: var(--color2, #b7b8ba)"
                d="M12.038 6.397c-0.77 1.978-1.663 3.935-2.508 5.888-0.564 1.266-1.126 2.546-1.772 3.767-0.103 0.181-0.233 0.366-0.349 0.537h4.633l-0.188-0.551c-0.071-0.275-0.121-0.597-0.14-0.928l-0.001-0.013c0.024-0.712 0.178-1.393 0.53-2.005h6.744c0.633 1.074 1.122 2.296 1.482 3.497h4.602c-0.352-0.462-0.674-0.937-0.982-1.423-1.488-2.474-2.799-5.095-4.082-7.678-0.743-1.516-1.502-3.048-2.135-4.622l-0.092-0.246c-0.069-0.198-0.096-0.308-0.103-0.52h-4.195c0.017 0.154 0.021 0.233 0.004 0.376-0.195 0.77-0.489 1.509-0.777 2.248-0.409 1.097-0.635 1.65-0.867 2.199l0.197-0.526zM15.518 5.511l2.364 5.142h-4.66l2.296-5.142zM11.778 7.869c-1.037 2.494-2.121 5.006-3.284 7.449-0.151 0.315-0.311 0.647-0.489 0.951h3.589c-0.38-1.119-0.188-2.515 0.472-3.497h7.1c0.654 1.057 1.112 2.224 1.509 3.394l0.031 0.103h3.719c-0.845-1.225-1.557-2.556-2.258-3.863-1.047-1.944-2.046-3.935-3.004-5.919-0.612-1.293-1.286-2.607-1.755-3.965l-0.027-0.099h-3.559c0 0.116-0.065 0.294-0.092 0.404-0.404 1.348-0.979 2.666-1.502 3.976-0.147 0.352-0.298 0.715-0.448 1.067zM15.511 4.731l2.871 6.244h-5.652l2.782-6.244z">
            </path>
            <path fill="#b7b8ba" style="fill: var(--color2, #b7b8ba)"
                d="M6.31 19.105h13.282c2.065 0 4.211 0.013 7.329-0.918v1.768s-3.131 0.729-7.208 0.729h-13.403v-1.579z">
            </path>
            <path fill="#b7b8ba" style="fill: var(--color2, #b7b8ba)"
                d="M7.254 21.291h5.264c4.157 0 14.47 0.135 15.806 1.039v1.728c-1.174-0.391-6.438-1.188-12.823-1.188h-8.247v-1.579z">
            </path>
            <path fill="#b7b8ba" style="fill: var(--color2, #b7b8ba)"
                d="M6.31 23.478h5.386c3.806 0 7.721 0.162 11.136 1.147s5.494 2.524 5.494 2.524v1.984s-2.416-2.106-6.722-3.158c-4.292-1.066-9.867-0.918-9.867-0.918h-5.426v-1.579z">
            </path>
        </symbol>

    </defs>
</svg>