<svg aria-hidden="true" style="position: absolute; width: 0; height: 0; overflow: hidden;" version="1.1" xmlns="http://www.w3.org/2000/svg" xmlns:xlink="http://www.w3.org/1999/xlink">
<defs>
    <!-- Соціальні мережі -->
<symbol id="icon-facebook" viewBox="0 0 15 32">
<path fill="#fff" style="fill: var(--color1, #fff)" d="M12.207 5.313h2.726v-5.088c-0.47-0.069-2.087-0.225-3.971-0.225-3.931 0-6.624 2.65-6.624 7.519v4.481h-4.339v5.688h4.339v14.313h5.317v-14.313h4.163l0.662-5.688h-4.825v-3.919c0-1.644 0.413-2.769 2.551-2.769z"></path>
</symbol>
<symbol id="icon-instagram" viewBox="0 0 32 32">
<path fill="#fff" style="fill: var(--color1, #fff)" d="M15.997 7.733c-4.542 0-8.206 3.634-8.206 8.139s3.664 8.139 8.206 8.139c4.543 0 8.207-3.634 8.207-8.139s-3.664-8.139-8.207-8.139zM15.997 21.163c-2.935 0-5.335-2.373-5.335-5.291s2.393-5.291 5.335-5.291c2.943 0 5.335 2.373 5.335 5.291s-2.4 5.291-5.335 5.291zM26.453 7.4c0 1.055-0.857 1.898-1.914 1.898-1.064 0-1.914-0.85-1.914-1.898s0.857-1.898 1.914-1.898c1.057 0 1.914 0.85 1.914 1.898zM31.888 9.327c-0.121-2.543-0.707-4.795-2.585-6.651-1.871-1.856-4.143-2.437-6.707-2.564-2.643-0.149-10.563-0.149-13.206 0-2.557 0.12-4.828 0.701-6.707 2.557s-2.457 4.108-2.586 6.651c-0.15 2.621-0.15 10.476 0 13.097 0.121 2.543 0.707 4.795 2.586 6.651s4.143 2.437 6.707 2.564c2.643 0.149 10.563 0.149 13.206 0 2.564-0.121 4.835-0.701 6.707-2.564 1.871-1.856 2.457-4.108 2.585-6.651 0.15-2.621 0.15-10.469 0-13.090zM28.474 25.229c-0.557 1.388-1.635 2.458-3.043 3.018-2.107 0.829-7.107 0.637-9.435 0.637s-7.335 0.184-9.435-0.637c-1.4-0.553-2.478-1.622-3.043-3.018-0.836-2.090-0.643-7.048-0.643-9.357s-0.186-7.275 0.643-9.357c0.557-1.388 1.636-2.458 3.043-3.018 2.107-0.829 7.107-0.637 9.435-0.637s7.335-0.184 9.435 0.637c1.4 0.553 2.478 1.622 3.043 3.018 0.836 2.090 0.643 7.048 0.643 9.357s0.193 7.275-0.643 9.357z"></path>
</symbol>
<symbol id="icon-twitter" viewBox="0 0 39 32">
<path fill="#fff" style="fill: var(--color1, #fff)" d="M34.856 7.865c0.025 0.345 0.025 0.69 0.025 1.036 0 10.528-8.012 22.658-22.657 22.658-4.512 0-8.703-1.307-12.228-3.575 0.641 0.074 1.257 0.099 1.923 0.099 3.723 0 7.15-1.258 9.886-3.402-3.501-0.074-6.435-2.367-7.445-5.523 0.493 0.074 0.986 0.123 1.504 0.123 0.715 0 1.43-0.099 2.096-0.271-3.649-0.74-6.385-3.945-6.385-7.816v-0.099c1.060 0.592 2.293 0.962 3.599 1.011-2.145-1.43-3.55-3.871-3.55-6.632 0-1.479 0.394-2.835 1.085-4.019 3.92 4.832 9.812 7.988 16.419 8.334-0.123-0.592-0.197-1.208-0.197-1.824 0-4.389 3.55-7.964 7.963-7.964 2.293 0 4.364 0.962 5.818 2.515 1.8-0.345 3.525-1.011 5.054-1.923-0.592 1.849-1.849 3.402-3.501 4.389 1.602-0.173 3.156-0.616 4.586-1.233-1.085 1.578-2.441 2.983-3.994 4.117z"></path>
</symbol>
</defs>
</svg>
