<svg aria-hidden="true" style="position: absolute; width: 0; height: 0; overflow: hidden;" version="1.1"
    xmlns="http://www.w3.org/2000/svg" xmlns:xlink="http://www.w3.org/1999/xlink">
    <defs>
        <symbol id="icon-anchor" viewBox="0 0 33 32">
            <path fill="none" stroke="#fff" style="stroke: var(--color1, #fff)" stroke-linejoin="round"
                stroke-linecap="round" stroke-miterlimit="4" stroke-width="1.8"
                d="M16.5 10c2.568 0 4.65-2.015 4.65-4.5s-2.082-4.5-4.65-4.5c-2.568 0-4.65 2.015-4.65 4.5s2.082 4.5 4.65 4.5zM16.5 10v21M16.5 31c-4.111 0-8.053-1.58-10.96-4.393s-4.54-6.628-4.54-10.607h4.65M16.5 31c4.111 0 8.053-1.58 10.96-4.393s4.54-6.628 4.54-10.607h-4.65">
            </path>
        </symbol>
        <symbol id="icon-arrow-left" viewBox="0 0 58 32">
            <path fill="none" stroke="#fff" style="stroke: var(--color1, #fff)" stroke-linejoin="round"
                stroke-linecap="round" stroke-miterlimit="4" stroke-width="3.7818"
                d="M55.273 16h-52.364M2.909 16l13.091-13.091M2.909 16l13.091 13.091"></path>
        </symbol>
        <symbol id="icon-arrow-right" viewBox="0 0 58 32">
            <path fill="none" stroke="#fff" style="stroke: var(--color1, #fff)" stroke-linejoin="round"
                stroke-linecap="round" stroke-miterlimit="4" stroke-width="3.7818"
                d="M2.909 16h52.364M55.273 16l-13.091-13.091M55.273 16l-13.091 13.091"></path>
        </symbol>
        <symbol id="icon-book" viewBox="0 0 35 32">
            <path fill="none" stroke="#fff" style="stroke: var(--color1, #fff)" stroke-linejoin="round"
                stroke-linecap="round" stroke-miterlimit="4" stroke-width="1.8581"
                d="M17.548 7.685c0-1.764-0.696-3.456-1.935-4.704s-2.919-1.948-4.671-1.948h-9.91v24.946h11.561c1.314 0 2.574 0.526 3.504 1.461s1.451 2.205 1.451 3.528M17.548 7.685v23.283M17.548 7.685c0-1.764 0.696-3.456 1.935-4.704s2.919-1.948 4.671-1.948h9.91v24.946h-11.561c-1.314 0-2.574 0.526-3.504 1.461s-1.451 2.205-1.451 3.528">
            </path>
        </symbol>
        <symbol id="icon-cup" viewBox="0 0 32 32">
            <path fill="none" stroke="#fff" style="stroke: var(--color1, #fff)" stroke-linejoin="round"
                stroke-linecap="round" stroke-miterlimit="4" stroke-width="1.7455"
                d="M23.873 11.491h1.431c1.519 0 2.975 0.633 4.049 1.761s1.677 2.657 1.677 4.251-0.603 3.124-1.677 4.251c-1.074 1.127-2.53 1.761-4.049 1.761h-1.431M23.873 11.491h-22.903v13.527c0 1.594 0.603 3.124 1.677 4.251s2.53 1.761 4.049 1.761h11.452c1.519 0 2.975-0.633 4.049-1.761s1.677-2.657 1.677-4.251v-13.527zM6.696 0.97v4.509M12.421 0.97v4.509M18.147 0.97v4.509">
            </path>
        </symbol>
        <symbol id="icon-facebook" viewBox="0 0 15 32">
            <path fill="#fff" style="fill: var(--color1, #fff)"
                d="M12.207 5.313h2.726v-5.088c-0.47-0.069-2.087-0.225-3.971-0.225-3.931 0-6.624 2.65-6.624 7.519v4.481h-4.339v5.688h4.339v14.313h5.317v-14.313h4.163l0.662-5.688h-4.825v-3.919c0-1.644 0.413-2.769 2.551-2.769z">
            </path>
        </symbol>
        <symbol id="icon-instagram" viewBox="0 0 32 32">
            <path fill="#fff" style="fill: var(--color1, #fff)"
                d="M15.997 7.733c-4.542 0-8.206 3.634-8.206 8.139s3.664 8.139 8.206 8.139c4.543 0 8.207-3.634 8.207-8.139s-3.664-8.139-8.207-8.139zM15.997 21.163c-2.935 0-5.335-2.373-5.335-5.291s2.393-5.291 5.335-5.291c2.943 0 5.335 2.373 5.335 5.291s-2.4 5.291-5.335 5.291zM26.453 7.4c0 1.055-0.857 1.898-1.914 1.898-1.064 0-1.914-0.85-1.914-1.898s0.857-1.898 1.914-1.898c1.057 0 1.914 0.85 1.914 1.898zM31.888 9.327c-0.121-2.543-0.707-4.795-2.585-6.651-1.871-1.856-4.143-2.437-6.707-2.564-2.643-0.149-10.563-0.149-13.206 0-2.557 0.12-4.828 0.701-6.707 2.557s-2.457 4.108-2.586 6.651c-0.15 2.621-0.15 10.476 0 13.097 0.121 2.543 0.707 4.795 2.586 6.651s4.143 2.437 6.707 2.564c2.643 0.149 10.563 0.149 13.206 0 2.564-0.121 4.835-0.701 6.707-2.564 1.871-1.856 2.457-4.108 2.585-6.651 0.15-2.621 0.15-10.469 0-13.090zM28.474 25.229c-0.557 1.388-1.635 2.458-3.043 3.018-2.107 0.829-7.107 0.637-9.435 0.637s-7.335 0.184-9.435-0.637c-1.4-0.553-2.478-1.622-3.043-3.018-0.836-2.090-0.643-7.048-0.643-9.357s-0.186-7.275 0.643-9.357c0.557-1.388 1.636-2.458 3.043-3.018 2.107-0.829 7.107-0.637 9.435-0.637s7.335-0.184 9.435 0.637c1.4 0.553 2.478 1.622 3.043 3.018 0.836 2.090 0.643 7.048 0.643 9.357s0.193 7.275-0.643 9.357z">
            </path>
        </symbol>
        <symbol id="icon-settings" viewBox="0 0 33 32">
            <path fill="none" stroke="#fff" style="stroke: var(--color1, #fff)" stroke-linejoin="round"
                stroke-linecap="round" stroke-miterlimit="4" stroke-width="1.8"
                d="M16.5 20.091c2.335 0 4.227-1.832 4.227-4.091s-1.893-4.091-4.227-4.091c-2.335 0-4.227 1.832-4.227 4.091s1.893 4.091 4.227 4.091z">
            </path>
            <path fill="none" stroke="#fff" style="stroke: var(--color1, #fff)" stroke-linejoin="round"
                stroke-linecap="round" stroke-miterlimit="4" stroke-width="1.8"
                d="M26.927 20.091c-0.188 0.411-0.244 0.867-0.161 1.31s0.301 0.851 0.626 1.172l0.084 0.082c0.262 0.253 0.47 0.554 0.612 0.885s0.215 0.686 0.215 1.044-0.073 0.713-0.215 1.044c-0.142 0.331-0.35 0.632-0.612 0.885s-0.573 0.455-0.915 0.592c-0.342 0.137-0.709 0.208-1.079 0.208s-0.737-0.071-1.079-0.208c-0.342-0.137-0.653-0.338-0.915-0.592l-0.085-0.082c-0.332-0.314-0.754-0.525-1.211-0.605s-0.929-0.026-1.354 0.155c-0.417 0.173-0.772 0.46-1.023 0.826s-0.385 0.795-0.387 1.233v0.232c0 0.723-0.297 1.417-0.825 1.928s-1.245 0.799-1.993 0.799c-0.747 0-1.464-0.287-1.993-0.799s-0.825-1.205-0.825-1.928v-0.123c-0.011-0.451-0.162-0.889-0.433-1.256s-0.651-0.647-1.089-0.803c-0.425-0.181-0.896-0.236-1.354-0.155s-0.879 0.291-1.211 0.605l-0.085 0.082c-0.262 0.254-0.573 0.455-0.915 0.592s-0.709 0.208-1.079 0.208-0.737-0.071-1.079-0.208c-0.342-0.137-0.653-0.338-0.915-0.592s-0.47-0.554-0.612-0.885-0.215-0.686-0.215-1.044c0-0.358 0.073-0.713 0.215-1.044s0.35-0.632 0.612-0.885l0.085-0.082c0.325-0.321 0.543-0.73 0.626-1.172s0.027-0.899-0.161-1.31c-0.179-0.403-0.475-0.747-0.853-0.99s-0.821-0.372-1.274-0.374h-0.24c-0.747 0-1.464-0.287-1.993-0.799s-0.825-1.205-0.825-1.928 0.297-1.417 0.825-1.928c0.529-0.511 1.245-0.799 1.993-0.799h0.127c0.466-0.011 0.919-0.157 1.298-0.419s0.668-0.63 0.83-1.053c0.188-0.411 0.244-0.867 0.161-1.31s-0.301-0.851-0.626-1.172l-0.085-0.082c-0.262-0.253-0.47-0.554-0.612-0.885s-0.215-0.686-0.215-1.044c0-0.358 0.073-0.713 0.215-1.044s0.35-0.632 0.612-0.885c0.262-0.254 0.573-0.455 0.915-0.592s0.709-0.208 1.079-0.208c0.37 0 0.737 0.071 1.079 0.208s0.653 0.338 0.915 0.592l0.085 0.082c0.332 0.314 0.754 0.525 1.211 0.605s0.929 0.026 1.354-0.155h0.113c0.417-0.173 0.772-0.46 1.023-0.826s0.385-0.795 0.386-1.233v-0.232c0-0.723 0.297-1.417 0.825-1.928s1.245-0.799 1.993-0.799 1.464 0.287 1.993 0.799c0.529 0.511 0.825 1.205 0.825 1.928v0.123c0.002 0.439 0.136 0.867 0.387 1.233s0.606 0.653 1.023 0.826c0.425 0.182 0.896 0.236 1.354 0.155s0.879-0.291 1.211-0.605l0.085-0.082c0.262-0.254 0.573-0.455 0.915-0.592s0.709-0.208 1.079-0.208c0.37 0 0.737 0.071 1.079 0.208s0.653 0.338 0.915 0.592c0.262 0.253 0.47 0.554 0.612 0.885s0.215 0.686 0.215 1.044c0 0.358-0.073 0.713-0.215 1.044s-0.35 0.632-0.612 0.885l-0.085 0.082c-0.325 0.321-0.543 0.73-0.626 1.172s-0.027 0.899 0.161 1.31v0.109c0.179 0.403 0.475 0.747 0.853 0.99s0.821 0.372 1.274 0.374h0.239c0.747 0 1.464 0.287 1.993 0.799s0.825 1.205 0.825 1.928-0.297 1.417-0.825 1.929c-0.529 0.511-1.245 0.799-1.993 0.799h-0.127c-0.453 0.002-0.896 0.132-1.274 0.374s-0.675 0.586-0.853 0.99z">
            </path>
        </symbol>
        <symbol id="icon-twitter" viewBox="0 0 39 32">
            <path fill="#fff" style="fill: var(--color1, #fff)"
                d="M34.856 7.865c0.025 0.345 0.025 0.69 0.025 1.036 0 10.528-8.012 22.658-22.657 22.658-4.512 0-8.703-1.307-12.228-3.575 0.641 0.074 1.257 0.099 1.923 0.099 3.723 0 7.15-1.258 9.886-3.402-3.501-0.074-6.435-2.367-7.445-5.523 0.493 0.074 0.986 0.123 1.504 0.123 0.715 0 1.43-0.099 2.096-0.271-3.649-0.74-6.385-3.945-6.385-7.816v-0.099c1.060 0.592 2.293 0.962 3.599 1.011-2.145-1.43-3.55-3.871-3.55-6.632 0-1.479 0.394-2.835 1.085-4.019 3.92 4.832 9.812 7.988 16.419 8.334-0.123-0.592-0.197-1.208-0.197-1.824 0-4.389 3.55-7.964 7.963-7.964 2.293 0 4.364 0.962 5.818 2.515 1.8-0.345 3.525-1.011 5.054-1.923-0.592 1.849-1.849 3.402-3.501 4.389 1.602-0.173 3.156-0.616 4.586-1.233-1.085 1.578-2.441 2.983-3.994 4.117z">
            </path>
        </symbol>
    </defs>
</svg>